# xmcd
#
# Track frame offsets:
#	150
#	20983
#	36413
#	54646
#	75720
#	92180
#	107636
#	122942
#	138061
#	155628
#	172906
#
# Disc length: 2540 seconds
#
# Revision: 6
# Processed by: cddbd v1.5.2PL0 Copyright (c) Steve Scherf et al.
# Submitted via: EasyCDDAExtractor 15.3.0.1
#
DISCID=9309ea0b
DTITLE=Ricardo Montaner - Todo Y Nada
DYEAR=2005
DGENRE=Latin
TTITLE0=Cuando A Mi Lado Estas
TTITLE1=Nada (Version Acustica)
TTITLE2=Mal De Amor
TTITLE3=Hablan
TTITLE4=Todo
TTITLE5=La Mujer Que Me Robe
TTITLE6=Grito De Dolor
TTITLE7=Nada
TTITLE8=Ahora Se
TTITLE9=Vida Eterna
TTITLE10=Tengo Verano
EXTD=
EXTT0=
EXTT1=
EXTT2=
EXTT3=
EXTT4=
EXTT5=
EXTT6=
EXTT7=
EXTT8=
EXTT9=
EXTT10=
PLAYORDER=
